<svg width="127" height="30" viewBox="0 0 127 30" fill="none" xmlns="http://www.w3.org/2000/svg">
<g clip-path="url(#clip0_10_1159)">
<path d="M21.2558 17.0963C21.2558 18.9413 20.0818 19.5115 18.9413 19.5115C17.8343 19.5115 16.5932 18.9413 16.5932 17.0963V8.43066H11.2148V18.2369C11.2148 21.5242 13.8649 24.4538 18.9413 24.4538C24.0512 24.4538 26.6342 21.5354 26.6342 18.2369V8.43066H21.2558V17.0963Z" fill="black"/>
<path d="M29.9551 13.0263V24.0512H35.3222V8.43066H29.9551V13.0263Z" fill="black"/>
<path d="M32.6168 0C30.8054 0 29.3965 1.44242 29.3965 3.25382C29.3965 5.06523 30.8054 6.4741 32.6168 6.4741C34.4282 6.4741 35.8706 5.06523 35.8706 3.25382C35.8818 1.44242 34.4393 0 32.6168 0Z" fill="black"/>
<path d="M46.135 12.8923C47.6445 12.8923 48.7179 13.8986 49.0533 15.3746L54.3646 14.3347C53.5595 10.4771 50.205 8.02832 46.1014 8.02832C41.4275 8.02832 37.7041 11.4499 37.7041 16.2244C37.7041 20.9989 41.4275 24.454 46.1014 24.454C50.1938 24.454 53.593 22.0052 54.3646 18.1364L49.0533 17.0965C48.7179 18.5725 47.6445 19.5788 46.135 19.5788C44.3571 19.5788 43.0824 18.1364 43.0824 16.2244C43.0824 14.2788 44.3571 12.8923 46.135 12.8923Z" fill="black"/>
<path d="M63.8686 8.02832C59.1276 8.02832 55.6055 11.4834 55.6055 16.2244C55.6055 20.9989 59.1947 24.454 63.9357 24.454C67.5585 24.454 70.5552 22.9445 71.964 19.344L66.6528 18.4719C66.2167 19.3776 65.1433 19.8807 64.0699 19.8807C62.5268 19.8807 61.4869 18.8408 61.2521 17.7339H72.2659V17.432C72.2659 10.779 68.2741 8.02832 63.8686 8.02832ZM61.0844 14.3794C61.3528 13.2054 62.4262 12.3332 63.8686 12.3332C65.311 12.3332 66.3844 13.2054 66.6528 14.3794H61.0844Z" fill="black"/>
<path d="M101.528 8.02832C96.8543 8.02832 93.1309 11.4499 93.1309 16.2244C93.1309 20.9989 96.8543 24.454 101.528 24.454C106.202 24.454 109.925 20.9989 109.925 16.2244C109.925 11.4499 106.191 8.02832 101.528 8.02832ZM101.528 19.5788C99.7503 19.5788 98.5092 18.1364 98.5092 16.2244C98.5092 14.2788 99.7503 12.9035 101.528 12.9035C103.272 12.9035 104.547 14.2788 104.547 16.2244C104.547 18.1364 103.272 19.5788 101.528 19.5788Z" fill="black"/>
<path d="M126.787 8.43066H120.771L118.658 12.3554L116.634 8.43066H110.428L114.923 16.2242L110.361 24.0512H116.534L118.557 20.0147L120.637 24.0512H126.787L122.314 16.1235L126.787 8.43066Z" fill="black"/>
<path d="M0.670891 13.0716H2.71711V24.555C2.71711 25.1588 2.41521 25.3937 1.5095 25.3937H0V30.0004H2.51584C4.69624 30.0004 8.09542 29.8663 8.09542 26.0086V8.46484H0.670891V13.0716Z" fill="black"/>
<path d="M5.21051 0.0332031C3.3991 0.0332031 1.99023 1.47562 1.99023 3.28702C1.99023 5.09843 3.3991 6.5073 5.21051 6.5073C7.02192 6.5073 8.46433 5.09843 8.46433 3.28702C8.46433 1.47562 7.02192 0.0332031 5.21051 0.0332031Z" fill="black"/>
<path d="M84.3308 8.02872C81.882 8.02872 80.406 9.03506 79.6904 10.142C79.6904 10.142 79.8246 9.20278 79.8246 8.06227V0.537109H74.4463V24.0518H79.8246V22.3411C80.529 23.4145 82.1056 24.4544 84.3308 24.4544C88.3896 24.4544 91.6546 20.9993 91.6546 16.2248C91.6546 11.4503 88.3896 8.02872 84.3308 8.02872ZM82.8883 19.5792C81.0434 19.5792 79.7351 18.0362 79.7351 16.2248C79.7351 14.3798 81.0434 12.9039 82.8883 12.9039C84.7668 12.9039 86.0751 14.3798 86.0751 16.2248C86.0751 18.0362 84.7668 19.5792 82.8883 19.5792Z" fill="black"/>
</g>
<defs>
<clipPath id="clip0_10_1159">
<rect width="127" height="30" fill="white"/>
</clipPath>
</defs>
</svg>
